<mxfile host="app.diagrams.net" modified="2024-04-27T09:52:41.754Z" agent="Mozilla/5.0 (Windows NT 10.0; Win64; x64) AppleWebKit/537.36 (KHTML, like Gecko) Chrome/124.0.0.0 Safari/537.36" etag="SMEJ9dfDYSnkXeT2lHHS" version="24.3.1" type="device">
  <diagram name="Seite-1" id="16NHNWIgSLPOA0fajQPc">
    <mxGraphModel dx="1148" dy="736" grid="1" gridSize="10" guides="1" tooltips="1" connect="1" arrows="1" fold="1" page="1" pageScale="1" pageWidth="827" pageHeight="1169" math="0" shadow="0">
      <root>
        <mxCell id="0" />
        <mxCell id="1" parent="0" />
        <mxCell id="kDeWN1aM2l66xyjtU0gT-1" value="" style="rounded=0;whiteSpace=wrap;html=1;fillColor=#dae8fc;strokeColor=#6c8ebf;" parent="1" vertex="1">
          <mxGeometry x="40" y="40" width="760" height="430" as="geometry" />
        </mxCell>
        <mxCell id="kDeWN1aM2l66xyjtU0gT-2" value="Faktultät4" style="strokeWidth=1;shadow=0;dashed=0;align=center;html=1;shape=mxgraph.mockup.navigation.anchor;fontSize=17;fontColor=#666666;fontStyle=1;" parent="1" vertex="1">
          <mxGeometry x="220" y="50" width="60" height="30" as="geometry" />
        </mxCell>
        <mxCell id="kDeWN1aM2l66xyjtU0gT-3" value="&gt;" style="strokeWidth=1;shadow=0;dashed=0;align=center;html=1;shape=mxgraph.mockup.navigation.anchor;fontSize=24;fontColor=#aaaaaa;fontStyle=1;" parent="1" vertex="1">
          <mxGeometry x="300" y="50" width="20" height="30" as="geometry" />
        </mxCell>
        <mxCell id="kDeWN1aM2l66xyjtU0gT-4" value="Informatik" style="strokeWidth=1;shadow=0;dashed=0;align=center;html=1;shape=mxgraph.mockup.navigation.anchor;fontSize=17;fontColor=#666666;fontStyle=1;" parent="1" vertex="1">
          <mxGeometry x="340" y="50" width="60" height="30" as="geometry" />
        </mxCell>
        <mxCell id="kDeWN1aM2l66xyjtU0gT-5" value="&gt;" style="strokeWidth=1;shadow=0;dashed=0;align=center;html=1;shape=mxgraph.mockup.navigation.anchor;fontSize=24;fontColor=#aaaaaa;fontStyle=1;" parent="1" vertex="1">
          <mxGeometry x="420" y="50" width="20" height="30" as="geometry" />
        </mxCell>
        <mxCell id="kDeWN1aM2l66xyjtU0gT-6" value="MDI" style="strokeWidth=1;shadow=0;dashed=0;align=center;html=1;shape=mxgraph.mockup.navigation.anchor;fontSize=17;fontColor=#666666;fontStyle=1;" parent="1" vertex="1">
          <mxGeometry x="430" y="50" width="60" height="30" as="geometry" />
        </mxCell>
        <mxCell id="kDeWN1aM2l66xyjtU0gT-7" value="&gt;" style="strokeWidth=1;shadow=0;dashed=0;align=center;html=1;shape=mxgraph.mockup.navigation.anchor;fontSize=24;fontColor=#aaaaaa;fontStyle=1;" parent="1" vertex="1">
          <mxGeometry x="484" y="50" width="20" height="30" as="geometry" />
        </mxCell>
        <mxCell id="kDeWN1aM2l66xyjtU0gT-8" value="Animation 1" style="strokeWidth=1;shadow=0;dashed=0;align=center;html=1;shape=mxgraph.mockup.navigation.anchor;fontSize=17;fontColor=#008cff;fontStyle=1;" parent="1" vertex="1">
          <mxGeometry x="530" y="50" width="60" height="30" as="geometry" />
        </mxCell>
        <mxCell id="kDeWN1aM2l66xyjtU0gT-9" value="Search" style="strokeWidth=1;shadow=0;dashed=0;align=center;html=1;shape=mxgraph.mockup.forms.searchBox;strokeColor=#999999;mainText=;strokeColor2=#008cff;fontColor=#666666;fontSize=17;align=left;spacingLeft=3;whiteSpace=wrap;" parent="1" vertex="1">
          <mxGeometry x="630" y="50" width="150" height="30" as="geometry" />
        </mxCell>
        <mxCell id="kDeWN1aM2l66xyjtU0gT-10" value="" style="verticalLabelPosition=bottom;shadow=0;dashed=0;align=center;html=1;verticalAlign=top;strokeWidth=1;shape=mxgraph.mockup.graphics.simpleIcon;strokeColor=#999999;" parent="1" vertex="1">
          <mxGeometry x="40" y="100" width="760" height="370" as="geometry" />
        </mxCell>
        <mxCell id="kDeWN1aM2l66xyjtU0gT-11" value="=" style="strokeWidth=1;shadow=0;dashed=0;align=center;html=1;shape=mxgraph.mockup.buttons.button;strokeColor=#666666;fontColor=#ffffff;mainText=;buttonStyle=round;fontSize=17;fontStyle=1;fillColor=#008cff;whiteSpace=wrap;" parent="1" vertex="1">
          <mxGeometry x="50" y="50" width="30" height="30" as="geometry" />
        </mxCell>
        <mxCell id="2KFMRunH4gnWoI9Xx2fc-2" value="" style="rounded=0;whiteSpace=wrap;html=1;fillColor=#5E5E5E;opacity=40;" vertex="1" parent="1">
          <mxGeometry x="270" y="40" width="530" height="430" as="geometry" />
        </mxCell>
        <mxCell id="2KFMRunH4gnWoI9Xx2fc-3" value="" style="rounded=0;whiteSpace=wrap;html=1;fillColor=#000000;" vertex="1" parent="1">
          <mxGeometry x="40" y="40" width="230" height="430" as="geometry" />
        </mxCell>
        <mxCell id="2KFMRunH4gnWoI9Xx2fc-4" value="StudyModules" style="text;html=1;align=center;verticalAlign=middle;whiteSpace=wrap;rounded=0;fontColor=#FFFFFF;" vertex="1" parent="1">
          <mxGeometry x="70" y="50" width="60" height="30" as="geometry" />
        </mxCell>
        <mxCell id="2KFMRunH4gnWoI9Xx2fc-5" value="&lt;font style=&quot;font-size: 18px;&quot; color=&quot;#ffffff&quot;&gt;X&lt;/font&gt;" style="text;html=1;align=center;verticalAlign=middle;whiteSpace=wrap;rounded=0;" vertex="1" parent="1">
          <mxGeometry x="230" y="40" width="60" height="30" as="geometry" />
        </mxCell>
        <mxCell id="2KFMRunH4gnWoI9Xx2fc-6" value="Version 1.0.2" style="text;html=1;align=center;verticalAlign=middle;whiteSpace=wrap;rounded=0;fontColor=#FFFFFF;" vertex="1" parent="1">
          <mxGeometry x="40" y="440" width="80" height="30" as="geometry" />
        </mxCell>
        <mxCell id="2KFMRunH4gnWoI9Xx2fc-7" value="&lt;font style=&quot;font-size: 13px;&quot;&gt;Logout&lt;/font&gt;" style="strokeWidth=1;shadow=0;dashed=0;align=center;html=1;shape=mxgraph.mockup.buttons.button;strokeColor=#666666;fontColor=#ffffff;mainText=;buttonStyle=round;fontSize=17;fontStyle=1;fillColor=#008cff;whiteSpace=wrap;" vertex="1" parent="1">
          <mxGeometry x="190" y="445" width="70" height="20" as="geometry" />
        </mxCell>
        <mxCell id="2KFMRunH4gnWoI9Xx2fc-8" value="" style="shape=mxgraph.mockup.containers.marginRect;rectMarginTop=10;strokeColor=#666666;strokeWidth=1;dashed=0;rounded=1;arcSize=5;recursiveResize=0;html=1;whiteSpace=wrap;fillColor=#003366;" vertex="1" parent="1">
          <mxGeometry x="60" y="110" width="170" height="170" as="geometry" />
        </mxCell>
        <mxCell id="2KFMRunH4gnWoI9Xx2fc-9" value="&lt;font style=&quot;font-size: 14px;&quot;&gt;Stammdaten&lt;/font&gt;" style="shape=rect;strokeColor=none;fillColor=#008cff;strokeWidth=1;dashed=0;rounded=1;arcSize=20;fontColor=#ffffff;fontSize=17;spacing=2;spacingTop=-2;align=left;autosize=1;spacingLeft=4;resizeWidth=0;resizeHeight=0;perimeter=none;html=1;whiteSpace=wrap;" vertex="1" parent="2KFMRunH4gnWoI9Xx2fc-8">
          <mxGeometry x="5" width="100" height="30" as="geometry" />
        </mxCell>
        <mxCell id="2KFMRunH4gnWoI9Xx2fc-12" value="&lt;font style=&quot;font-size: 14px;&quot;&gt;Benutzer&lt;/font&gt;" style="strokeWidth=1;shadow=0;dashed=0;align=center;html=1;shape=mxgraph.mockup.buttons.button;strokeColor=#666666;fontColor=#ffffff;mainText=;buttonStyle=round;fontSize=17;fontStyle=1;fillColor=#008cff;whiteSpace=wrap;" vertex="1" parent="2KFMRunH4gnWoI9Xx2fc-8">
          <mxGeometry x="20" y="40" width="130" height="30" as="geometry" />
        </mxCell>
        <mxCell id="2KFMRunH4gnWoI9Xx2fc-13" value="&lt;font style=&quot;font-size: 14px;&quot;&gt;Userverwaltung&lt;/font&gt;" style="strokeWidth=1;shadow=0;dashed=0;align=center;html=1;shape=mxgraph.mockup.buttons.button;strokeColor=#666666;fontColor=#ffffff;mainText=;buttonStyle=round;fontSize=17;fontStyle=1;fillColor=#008cff;whiteSpace=wrap;" vertex="1" parent="2KFMRunH4gnWoI9Xx2fc-8">
          <mxGeometry x="20" y="80" width="130" height="30" as="geometry" />
        </mxCell>
        <mxCell id="2KFMRunH4gnWoI9Xx2fc-14" value="&lt;font style=&quot;font-size: 14px;&quot;&gt;Userverwaltung&lt;/font&gt;" style="strokeWidth=1;shadow=0;dashed=0;align=center;html=1;shape=mxgraph.mockup.buttons.button;strokeColor=#666666;fontColor=#ffffff;mainText=;buttonStyle=round;fontSize=17;fontStyle=1;fillColor=#008cff;whiteSpace=wrap;" vertex="1" parent="2KFMRunH4gnWoI9Xx2fc-8">
          <mxGeometry x="20" y="120" width="130" height="30" as="geometry" />
        </mxCell>
        <mxCell id="2KFMRunH4gnWoI9Xx2fc-10" value="" style="shape=mxgraph.mockup.containers.marginRect;rectMarginTop=10;strokeColor=#666666;strokeWidth=1;dashed=0;rounded=1;arcSize=5;recursiveResize=0;html=1;whiteSpace=wrap;fillColor=#003366;" vertex="1" parent="1">
          <mxGeometry x="60" y="300" width="180" height="130" as="geometry" />
        </mxCell>
        <mxCell id="2KFMRunH4gnWoI9Xx2fc-11" value="&lt;font style=&quot;font-size: 15px;&quot;&gt;Archiv&lt;/font&gt;" style="shape=rect;strokeColor=none;fillColor=#008cff;strokeWidth=1;dashed=0;rounded=1;arcSize=20;fontColor=#ffffff;fontSize=17;spacing=2;spacingTop=-2;align=left;autosize=1;spacingLeft=4;resizeWidth=0;resizeHeight=0;perimeter=none;html=1;whiteSpace=wrap;" vertex="1" parent="2KFMRunH4gnWoI9Xx2fc-10">
          <mxGeometry x="5" width="70" height="30" as="geometry" />
        </mxCell>
        <mxCell id="2KFMRunH4gnWoI9Xx2fc-15" value="&lt;font style=&quot;font-size: 14px;&quot;&gt;Gelöschte Module&lt;/font&gt;" style="strokeWidth=1;shadow=0;dashed=0;align=center;html=1;shape=mxgraph.mockup.buttons.button;strokeColor=#666666;fontColor=#ffffff;mainText=;buttonStyle=round;fontSize=17;fontStyle=1;fillColor=#008cff;whiteSpace=wrap;" vertex="1" parent="2KFMRunH4gnWoI9Xx2fc-10">
          <mxGeometry x="10" y="40" width="160" height="30" as="geometry" />
        </mxCell>
        <mxCell id="2KFMRunH4gnWoI9Xx2fc-16" value="&lt;font style=&quot;font-size: 14px;&quot;&gt;Prüfungsordnungen&lt;/font&gt;" style="strokeWidth=1;shadow=0;dashed=0;align=center;html=1;shape=mxgraph.mockup.buttons.button;strokeColor=#666666;fontColor=#ffffff;mainText=;buttonStyle=round;fontSize=17;fontStyle=1;fillColor=#008cff;whiteSpace=wrap;" vertex="1" parent="2KFMRunH4gnWoI9Xx2fc-10">
          <mxGeometry x="10" y="80" width="160" height="30" as="geometry" />
        </mxCell>
      </root>
    </mxGraphModel>
  </diagram>
</mxfile>
